<svg id="visual" viewBox="0 0 1500 1500" width="1500" height="1500" xmlns="http://www.w3.org/2000/svg" xmlns:xlink="http://www.w3.org/1999/xlink" version="1.1"><rect x="0" y="0" width="1500" height="1500" fill="#121f03"></rect><defs><linearGradient id="grad1_0" x1="0%" y1="0%" x2="100%" y2="100%"><stop offset="30%" stop-color="#d86f19" stop-opacity="1"></stop><stop offset="70%" stop-color="#d86f19" stop-opacity="1"></stop></linearGradient></defs><defs><linearGradient id="grad1_1" x1="0%" y1="0%" x2="100%" y2="100%"><stop offset="30%" stop-color="#d86f19" stop-opacity="1"></stop><stop offset="70%" stop-color="#aa6800" stop-opacity="1"></stop></linearGradient></defs><defs><linearGradient id="grad1_2" x1="0%" y1="0%" x2="100%" y2="100%"><stop offset="30%" stop-color="#805e00" stop-opacity="1"></stop><stop offset="70%" stop-color="#aa6800" stop-opacity="1"></stop></linearGradient></defs><defs><linearGradient id="grad1_3" x1="0%" y1="0%" x2="100%" y2="100%"><stop offset="30%" stop-color="#805e00" stop-opacity="1"></stop><stop offset="70%" stop-color="#5b5000" stop-opacity="1"></stop></linearGradient></defs><defs><linearGradient id="grad1_4" x1="0%" y1="0%" x2="100%" y2="100%"><stop offset="30%" stop-color="#3c4102" stop-opacity="1"></stop><stop offset="70%" stop-color="#5b5000" stop-opacity="1"></stop></linearGradient></defs><defs><linearGradient id="grad1_5" x1="0%" y1="0%" x2="100%" y2="100%"><stop offset="30%" stop-color="#3c4102" stop-opacity="1"></stop><stop offset="70%" stop-color="#233005" stop-opacity="1"></stop></linearGradient></defs><defs><linearGradient id="grad1_6" x1="0%" y1="0%" x2="100%" y2="100%"><stop offset="30%" stop-color="#121f03" stop-opacity="1"></stop><stop offset="70%" stop-color="#233005" stop-opacity="1"></stop></linearGradient></defs><defs><linearGradient id="grad2_0" x1="0%" y1="0%" x2="100%" y2="100%"><stop offset="30%" stop-color="#d86f19" stop-opacity="1"></stop><stop offset="70%" stop-color="#d86f19" stop-opacity="1"></stop></linearGradient></defs><defs><linearGradient id="grad2_1" x1="0%" y1="0%" x2="100%" y2="100%"><stop offset="30%" stop-color="#aa6800" stop-opacity="1"></stop><stop offset="70%" stop-color="#d86f19" stop-opacity="1"></stop></linearGradient></defs><defs><linearGradient id="grad2_2" x1="0%" y1="0%" x2="100%" y2="100%"><stop offset="30%" stop-color="#aa6800" stop-opacity="1"></stop><stop offset="70%" stop-color="#805e00" stop-opacity="1"></stop></linearGradient></defs><defs><linearGradient id="grad2_3" x1="0%" y1="0%" x2="100%" y2="100%"><stop offset="30%" stop-color="#5b5000" stop-opacity="1"></stop><stop offset="70%" stop-color="#805e00" stop-opacity="1"></stop></linearGradient></defs><defs><linearGradient id="grad2_4" x1="0%" y1="0%" x2="100%" y2="100%"><stop offset="30%" stop-color="#5b5000" stop-opacity="1"></stop><stop offset="70%" stop-color="#3c4102" stop-opacity="1"></stop></linearGradient></defs><defs><linearGradient id="grad2_5" x1="0%" y1="0%" x2="100%" y2="100%"><stop offset="30%" stop-color="#233005" stop-opacity="1"></stop><stop offset="70%" stop-color="#3c4102" stop-opacity="1"></stop></linearGradient></defs><defs><linearGradient id="grad2_6" x1="0%" y1="0%" x2="100%" y2="100%"><stop offset="30%" stop-color="#233005" stop-opacity="1"></stop><stop offset="70%" stop-color="#121f03" stop-opacity="1"></stop></linearGradient></defs><g transform="translate(1500, 0)"><path d="M0 954.6C-138.8 954.6 -277.6 954.6 -365.3 881.9C-453 809.2 -489.5 663.8 -571.3 571.3C-653.2 478.8 -780.4 439.2 -851.8 352.8C-923.2 266.4 -938.9 133.2 -954.6 0L0 0Z" fill="#1a2805"></path><path d="M0 818.2C-119 818.2 -238 818.2 -313.1 755.9C-388.3 693.6 -419.6 569 -489.7 489.7C-559.9 410.4 -668.9 376.5 -730.1 302.4C-791.4 228.4 -804.8 114.2 -818.2 0L0 0Z" fill="#2f3904"></path><path d="M0 681.9C-99.2 681.9 -198.3 681.9 -260.9 630C-323.6 578 -349.6 474.2 -408.1 408.1C-466.6 342 -557.4 313.7 -608.4 252C-659.5 190.3 -670.7 95.2 -681.9 0L0 0Z" fill="#4b4900"></path><path d="M0 545.5C-79.3 545.5 -158.7 545.5 -208.7 504C-258.8 462.4 -279.7 379.3 -326.5 326.5C-373.3 273.6 -445.9 251 -486.8 201.6C-527.6 152.2 -536.5 76.1 -545.5 0L0 0Z" fill="#6d5700"></path><path d="M0 409.1C-59.5 409.1 -119 409.1 -156.6 378C-194.1 346.8 -209.8 284.5 -244.9 244.9C-279.9 205.2 -334.5 188.2 -365.1 151.2C-395.7 114.2 -402.4 57.1 -409.1 0L0 0Z" fill="#946300"></path><path d="M0 272.7C-39.7 272.7 -79.3 272.7 -104.4 252C-129.4 231.2 -139.9 189.7 -163.2 163.2C-186.6 136.8 -223 125.5 -243.4 100.8C-263.8 76.1 -268.3 38.1 -272.7 0L0 0Z" fill="#c16c09"></path><path d="M0 136.4C-19.8 136.4 -39.7 136.4 -52.2 126C-64.7 115.6 -69.9 94.8 -81.6 81.6C-93.3 68.4 -111.5 62.7 -121.7 50.4C-131.9 38.1 -134.1 19 -136.4 0L0 0Z" fill="#d86f19"></path></g><g transform="translate(0, 1500)"><path d="M0 -954.6C139.9 -956.1 279.8 -957.5 365.3 -881.9C450.9 -806.4 482.1 -653.7 559.3 -559.3C636.6 -464.9 759.8 -428.7 833.3 -345.2C906.9 -261.7 930.7 -130.8 954.6 0L0 0Z" fill="#1a2805"></path><path d="M0 -818.2C119.9 -819.5 239.8 -820.7 313.1 -755.9C386.5 -691.2 413.2 -560.3 479.4 -479.4C545.6 -398.5 651.3 -367.5 714.3 -295.9C777.3 -224.3 797.8 -112.1 818.2 0L0 0Z" fill="#2f3904"></path><path d="M0 -681.9C99.9 -682.9 199.8 -683.9 260.9 -630C322 -576 344.3 -467 399.5 -399.5C454.7 -332.1 542.7 -306.2 595.2 -246.6C647.8 -186.9 664.8 -93.5 681.9 0L0 0Z" fill="#4b4900"></path><path d="M0 -545.5C79.9 -546.3 159.9 -547.1 208.7 -504C257.6 -460.8 275.5 -373.6 319.6 -319.6C363.7 -265.7 434.2 -245 476.2 -197.2C518.2 -149.5 531.9 -74.8 545.5 0L0 0Z" fill="#6d5700"></path><path d="M0 -409.1C59.9 -409.7 119.9 -410.4 156.6 -378C193.2 -345.6 206.6 -280.2 239.7 -239.7C272.8 -199.2 325.6 -183.7 357.1 -147.9C388.7 -112.1 398.9 -56.1 409.1 0L0 0Z" fill="#946300"></path><path d="M0 -272.7C40 -273.2 79.9 -273.6 104.4 -252C128.8 -230.4 137.7 -186.8 159.8 -159.8C181.9 -132.8 217.1 -122.5 238.1 -98.6C259.1 -74.8 265.9 -37.4 272.7 0L0 0Z" fill="#c16c09"></path><path d="M0 -136.4C20 -136.6 40 -136.8 52.2 -126C64.4 -115.2 68.9 -93.4 79.9 -79.9C90.9 -66.4 108.5 -61.2 119 -49.3C129.6 -37.4 133 -18.7 136.4 0L0 0Z" fill="#d86f19"></path></g></svg>